<svg width="177" height="64" viewBox="0 0 177 64" fill="none" xmlns="http://www.w3.org/2000/svg">
<g filter="url(#filter0_d_297083_8298)">
<rect x="4" width="169" height="56" rx="4" fill="#4D5AE5" shape-rendering="crispEdges"/>
<path d="M76.5869 30.0703C76.5869 29.8359 76.5504 29.6276 76.4775 29.4453C76.4098 29.263 76.2874 29.0964 76.1103 28.9453C75.9332 28.7943 75.6832 28.6484 75.3603 28.5078C75.0426 28.362 74.6364 28.2135 74.1416 28.0625C73.5999 27.8958 73.0999 27.7109 72.6416 27.5078C72.1884 27.2995 71.7926 27.0599 71.4541 26.7891C71.1155 26.513 70.8525 26.1979 70.665 25.8438C70.4775 25.4844 70.3838 25.0703 70.3838 24.6016C70.3838 24.138 70.4801 23.7161 70.6728 23.3359C70.8707 22.9557 71.1494 22.6276 71.5088 22.3516C71.8733 22.0703 72.303 21.8542 72.7978 21.7031C73.2926 21.5469 73.8395 21.4688 74.4384 21.4688C75.2822 21.4688 76.0088 21.625 76.6181 21.9375C77.2327 22.25 77.7041 22.6693 78.0322 23.1953C78.3655 23.7214 78.5322 24.3021 78.5322 24.9375H76.5869C76.5869 24.5625 76.5061 24.2318 76.3447 23.9453C76.1884 23.6536 75.9489 23.4245 75.6259 23.2578C75.3082 23.0911 74.9046 23.0078 74.415 23.0078C73.9515 23.0078 73.566 23.0781 73.2588 23.2188C72.9515 23.3594 72.7223 23.5495 72.5713 23.7891C72.4202 24.0286 72.3447 24.2995 72.3447 24.6016C72.3447 24.8151 72.3942 25.0104 72.4931 25.1875C72.5921 25.3594 72.7431 25.5208 72.9463 25.6719C73.1494 25.8177 73.4046 25.9557 73.7119 26.0859C74.0192 26.2161 74.3811 26.3411 74.7978 26.4609C75.428 26.6484 75.9775 26.8568 76.4463 27.0859C76.915 27.3099 77.3056 27.5651 77.6181 27.8516C77.9306 28.138 78.165 28.4635 78.3213 28.8281C78.4775 29.1875 78.5556 29.5964 78.5556 30.0547C78.5556 30.5339 78.4593 30.9661 78.2666 31.3516C78.0739 31.7318 77.7978 32.0573 77.4384 32.3281C77.0843 32.5938 76.6572 32.7995 76.1572 32.9453C75.6624 33.0859 75.1103 33.1562 74.5009 33.1562C73.9541 33.1562 73.415 33.0833 72.8838 32.9375C72.3577 32.7917 71.8785 32.5703 71.4463 32.2734C71.014 31.9714 70.6702 31.5964 70.415 31.1484C70.1598 30.6953 70.0322 30.1667 70.0322 29.5625H71.9931C71.9931 29.9323 72.0556 30.2474 72.1806 30.5078C72.3108 30.7682 72.4905 30.9818 72.7197 31.1484C72.9489 31.3099 73.2145 31.4297 73.5166 31.5078C73.8239 31.5859 74.152 31.625 74.5009 31.625C74.9593 31.625 75.3421 31.5599 75.6494 31.4297C75.9619 31.2995 76.1963 31.1172 76.3525 30.8828C76.5088 30.6484 76.5869 30.3776 76.5869 30.0703ZM84.4691 33.1562C83.8441 33.1562 83.279 33.0547 82.7738 32.8516C82.2738 32.6432 81.8467 32.3542 81.4925 31.9844C81.1435 31.6146 80.8753 31.1797 80.6878 30.6797C80.5003 30.1797 80.4066 29.6406 80.4066 29.0625V28.75C80.4066 28.0885 80.5029 27.4896 80.6956 26.9531C80.8883 26.4167 81.1566 25.9583 81.5003 25.5781C81.8441 25.1927 82.2503 24.8984 82.7191 24.6953C83.1878 24.4922 83.6956 24.3906 84.2425 24.3906C84.8467 24.3906 85.3753 24.4922 85.8284 24.6953C86.2816 24.8984 86.6566 25.1849 86.9534 25.5547C87.2555 25.9193 87.4795 26.3542 87.6253 26.8594C87.7764 27.3646 87.8519 27.9219 87.8519 28.5312V29.3359H81.3206V27.9844H85.9925V27.8359C85.9821 27.4974 85.9144 27.1797 85.7894 26.8828C85.6696 26.5859 85.4847 26.3464 85.2347 26.1641C84.9847 25.9818 84.6514 25.8906 84.2347 25.8906C83.9222 25.8906 83.6435 25.9583 83.3988 26.0938C83.1592 26.224 82.9586 26.4141 82.7972 26.6641C82.6357 26.9141 82.5107 27.2161 82.4222 27.5703C82.3389 27.9193 82.2972 28.3125 82.2972 28.75V29.0625C82.2972 29.4323 82.3467 29.776 82.4456 30.0938C82.5498 30.4062 82.7008 30.6797 82.8988 30.9141C83.0967 31.1484 83.3363 31.3333 83.6175 31.4688C83.8988 31.599 84.2191 31.6641 84.5784 31.6641C85.0316 31.6641 85.4352 31.5729 85.7894 31.3906C86.1435 31.2083 86.4508 30.9505 86.7113 30.6172L87.7034 31.5781C87.5211 31.8438 87.2842 32.099 86.9925 32.3438C86.7008 32.5833 86.3441 32.7786 85.9222 32.9297C85.5055 33.0807 85.0211 33.1562 84.4691 33.1562ZM91.8278 26.3516V33H89.945V24.5469H91.7184L91.8278 26.3516ZM91.4919 28.4609L90.8825 28.4531C90.8877 27.8542 90.971 27.3047 91.1325 26.8047C91.2992 26.3047 91.5283 25.875 91.82 25.5156C92.1169 25.1562 92.471 24.8802 92.8825 24.6875C93.294 24.4896 93.7523 24.3906 94.2575 24.3906C94.6637 24.3906 95.0309 24.4479 95.3591 24.5625C95.6924 24.6719 95.9762 24.8516 96.2106 25.1016C96.4502 25.3516 96.6325 25.6771 96.7575 26.0781C96.8825 26.474 96.945 26.9609 96.945 27.5391V33H95.0544V27.5312C95.0544 27.125 94.9945 26.8047 94.8747 26.5703C94.7601 26.3307 94.5908 26.1615 94.3669 26.0625C94.1481 25.9583 93.8747 25.9062 93.5466 25.9062C93.2236 25.9062 92.9346 25.974 92.6794 26.1094C92.4242 26.2448 92.208 26.4297 92.0309 26.6641C91.8591 26.8984 91.7262 27.1693 91.6325 27.4766C91.5387 27.7839 91.4919 28.112 91.4919 28.4609ZM104.663 31.25V21H106.554V33H104.843L104.663 31.25ZM99.1631 28.8672V28.7031C99.1631 28.0625 99.2386 27.4792 99.3897 26.9531C99.5407 26.4219 99.7595 25.9661 100.046 25.5859C100.332 25.2005 100.681 24.9062 101.093 24.7031C101.504 24.4948 101.968 24.3906 102.483 24.3906C102.994 24.3906 103.442 24.4896 103.827 24.6875C104.213 24.8854 104.541 25.1693 104.812 25.5391C105.082 25.9036 105.299 26.3411 105.46 26.8516C105.621 27.3568 105.736 27.9193 105.804 28.5391V29.0625C105.736 29.6667 105.621 30.2188 105.46 30.7188C105.299 31.2188 105.082 31.651 104.812 32.0156C104.541 32.3802 104.21 32.6615 103.819 32.8594C103.434 33.0573 102.983 33.1562 102.468 33.1562C101.957 33.1562 101.496 33.0495 101.085 32.8359C100.679 32.6224 100.332 32.3229 100.046 31.9375C99.7595 31.5521 99.5407 31.099 99.3897 30.5781C99.2386 30.0521 99.1631 29.4818 99.1631 28.8672ZM101.046 28.7031V28.8672C101.046 29.2526 101.08 29.612 101.147 29.9453C101.22 30.2786 101.332 30.5729 101.483 30.8281C101.634 31.0781 101.83 31.276 102.069 31.4219C102.314 31.5625 102.606 31.6328 102.944 31.6328C103.371 31.6328 103.723 31.5391 103.999 31.3516C104.275 31.1641 104.491 30.9115 104.647 30.5938C104.809 30.2708 104.918 29.9115 104.976 29.5156V28.1016C104.944 27.7943 104.879 27.5078 104.78 27.2422C104.687 26.9766 104.559 26.7448 104.397 26.5469C104.236 26.3438 104.036 26.1875 103.796 26.0781C103.562 25.9635 103.283 25.9062 102.96 25.9062C102.616 25.9062 102.325 25.9792 102.085 26.125C101.845 26.2708 101.647 26.4714 101.491 26.7266C101.34 26.9818 101.228 27.2786 101.155 27.6172C101.082 27.9557 101.046 28.3177 101.046 28.7031Z" fill="white"/>
</g>
<defs>
<filter id="filter0_d_297083_8298" x="0" y="0" width="177" height="64" filterUnits="userSpaceOnUse" color-interpolation-filters="sRGB">
<feFlood flood-opacity="0" result="BackgroundImageFix"/>
<feColorMatrix in="SourceAlpha" type="matrix" values="0 0 0 0 0 0 0 0 0 0 0 0 0 0 0 0 0 0 127 0" result="hardAlpha"/>
<feOffset dy="4"/>
<feGaussianBlur stdDeviation="2"/>
<feComposite in2="hardAlpha" operator="out"/>
<feColorMatrix type="matrix" values="0 0 0 0 0 0 0 0 0 0 0 0 0 0 0 0 0 0 0.15 0"/>
<feBlend mode="normal" in2="BackgroundImageFix" result="effect1_dropShadow_297083_8298"/>
<feBlend mode="normal" in="SourceGraphic" in2="effect1_dropShadow_297083_8298" result="shape"/>
</filter>
</defs>
</svg>
