<svg width="165" height="40" viewBox="0 0 165 40" fill="none" xmlns="http://www.w3.org/2000/svg">
<rect width="165" height="40" rx="4" fill="#4D5AE5"/>
<path d="M31.3306 22.0703C31.3306 21.8359 31.2942 21.6276 31.2212 21.4453C31.1535 21.263 31.0311 21.0964 30.8541 20.9453C30.677 20.7943 30.427 20.6484 30.1041 20.5078C29.7864 20.362 29.3801 20.2135 28.8853 20.0625C28.3436 19.8958 27.8436 19.7109 27.3853 19.5078C26.9322 19.2995 26.5364 19.0599 26.1978 18.7891C25.8593 18.513 25.5962 18.1979 25.4087 17.8438C25.2212 17.4844 25.1275 17.0703 25.1275 16.6016C25.1275 16.138 25.2239 15.7161 25.4166 15.3359C25.6145 14.9557 25.8931 14.6276 26.2525 14.3516C26.6171 14.0703 27.0468 13.8542 27.5416 13.7031C28.0364 13.5469 28.5832 13.4688 29.1822 13.4688C30.0259 13.4688 30.7525 13.625 31.3619 13.9375C31.9765 14.25 32.4478 14.6693 32.7759 15.1953C33.1093 15.7214 33.2759 16.3021 33.2759 16.9375H31.3306C31.3306 16.5625 31.2499 16.2318 31.0884 15.9453C30.9322 15.6536 30.6926 15.4245 30.3697 15.2578C30.052 15.0911 29.6483 15.0078 29.1587 15.0078C28.6952 15.0078 28.3098 15.0781 28.0025 15.2188C27.6952 15.3594 27.466 15.5495 27.315 15.7891C27.164 16.0286 27.0884 16.2995 27.0884 16.6016C27.0884 16.8151 27.1379 17.0104 27.2369 17.1875C27.3358 17.3594 27.4869 17.5208 27.69 17.6719C27.8931 17.8177 28.1483 17.9557 28.4556 18.0859C28.7629 18.2161 29.1249 18.3411 29.5416 18.4609C30.1718 18.6484 30.7212 18.8568 31.19 19.0859C31.6587 19.3099 32.0494 19.5651 32.3619 19.8516C32.6744 20.138 32.9087 20.4635 33.065 20.8281C33.2212 21.1875 33.2994 21.5964 33.2994 22.0547C33.2994 22.5339 33.203 22.9661 33.0103 23.3516C32.8176 23.7318 32.5416 24.0573 32.1822 24.3281C31.828 24.5938 31.4009 24.7995 30.9009 24.9453C30.4061 25.0859 29.8541 25.1562 29.2447 25.1562C28.6978 25.1562 28.1587 25.0833 27.6275 24.9375C27.1015 24.7917 26.6223 24.5703 26.19 24.2734C25.7577 23.9714 25.414 23.5964 25.1587 23.1484C24.9035 22.6953 24.7759 22.1667 24.7759 21.5625H26.7369C26.7369 21.9323 26.7994 22.2474 26.9244 22.5078C27.0546 22.7682 27.2343 22.9818 27.4634 23.1484C27.6926 23.3099 27.9582 23.4297 28.2603 23.5078C28.5676 23.5859 28.8957 23.625 29.2447 23.625C29.703 23.625 30.0858 23.5599 30.3931 23.4297C30.7056 23.2995 30.94 23.1172 31.0962 22.8828C31.2525 22.6484 31.3306 22.3776 31.3306 22.0703ZM40.5722 23.0078V16.5469H42.4628V25H40.6816L40.5722 23.0078ZM40.8378 21.25L41.4706 21.2344C41.4706 21.8021 41.4081 22.3255 41.2831 22.8047C41.1581 23.2786 40.9654 23.6927 40.705 24.0469C40.4446 24.3958 40.1112 24.6693 39.705 24.8672C39.2987 25.0599 38.8118 25.1562 38.2441 25.1562C37.8326 25.1562 37.455 25.0964 37.1112 24.9766C36.7675 24.8568 36.4706 24.6719 36.2206 24.4219C35.9758 24.1719 35.7857 23.8464 35.6503 23.4453C35.5149 23.0443 35.4472 22.5651 35.4472 22.0078V16.5469H37.33V22.0234C37.33 22.3307 37.3665 22.5885 37.4394 22.7969C37.5123 23 37.6112 23.1641 37.7362 23.2891C37.8612 23.4141 38.0071 23.5026 38.1737 23.5547C38.3404 23.6068 38.5175 23.6328 38.705 23.6328C39.2415 23.6328 39.6633 23.5286 39.9706 23.3203C40.2831 23.1068 40.5045 22.8203 40.6347 22.4609C40.7701 22.1016 40.8378 21.6979 40.8378 21.25ZM45.0403 13H46.9231V23.1953L46.7434 25H45.0403V13ZM52.4387 20.6953V20.8594C52.4387 21.4844 52.3684 22.0599 52.2278 22.5859C52.0924 23.1068 51.8841 23.5599 51.6028 23.9453C51.3268 24.3307 50.983 24.6302 50.5716 24.8438C50.1653 25.0521 49.694 25.1562 49.1575 25.1562C48.6315 25.1562 48.1731 25.0573 47.7825 24.8594C47.3919 24.6615 47.0637 24.3802 46.7981 24.0156C46.5377 23.651 46.3268 23.2161 46.1653 22.7109C46.0039 22.2057 45.8893 21.6484 45.8216 21.0391V20.5156C45.8893 19.901 46.0039 19.3438 46.1653 18.8438C46.3268 18.3385 46.5377 17.9036 46.7981 17.5391C47.0637 17.1693 47.3893 16.8854 47.7747 16.6875C48.1653 16.4896 48.621 16.3906 49.1419 16.3906C49.6835 16.3906 50.1601 16.4948 50.5716 16.7031C50.9882 16.9115 51.3346 17.2083 51.6106 17.5938C51.8867 17.974 52.0924 18.4271 52.2278 18.9531C52.3684 19.4792 52.4387 20.0599 52.4387 20.6953ZM50.5559 20.8594V20.6953C50.5559 20.3151 50.5247 19.9583 50.4622 19.625C50.3997 19.2865 50.2955 18.9896 50.1497 18.7344C50.0091 18.4792 49.8164 18.2786 49.5716 18.1328C49.332 17.9818 49.0325 17.9062 48.6731 17.9062C48.3398 17.9062 48.0533 17.9635 47.8137 18.0781C47.5742 18.1927 47.3736 18.349 47.2122 18.5469C47.0507 18.7448 46.9231 18.974 46.8294 19.2344C46.7408 19.4948 46.6809 19.776 46.6497 20.0781V21.4922C46.6966 21.8828 46.7955 22.2422 46.9466 22.5703C47.1028 22.8932 47.3216 23.1536 47.6028 23.3516C47.8841 23.5443 48.246 23.6406 48.6887 23.6406C49.0377 23.6406 49.332 23.5703 49.5716 23.4297C49.8111 23.2891 50.0012 23.0938 50.1419 22.8438C50.2877 22.5885 50.3919 22.2917 50.4544 21.9531C50.5221 21.6146 50.5559 21.25 50.5559 20.8594ZM59.4147 22.7109C59.4147 22.5234 59.3678 22.3542 59.2741 22.2031C59.1803 22.0469 59.0006 21.9062 58.735 21.7812C58.4746 21.6562 58.0892 21.5417 57.5787 21.4375C57.1308 21.3385 56.7194 21.2214 56.3444 21.0859C55.9746 20.9453 55.6569 20.776 55.3912 20.5781C55.1256 20.3802 54.9199 20.1458 54.7741 19.875C54.6282 19.6042 54.5553 19.2917 54.5553 18.9375C54.5553 18.5938 54.6308 18.2682 54.7819 17.9609C54.9329 17.6536 55.1491 17.3828 55.4303 17.1484C55.7116 16.9141 56.0527 16.7292 56.4537 16.5938C56.86 16.4583 57.3131 16.3906 57.8131 16.3906C58.5215 16.3906 59.1282 16.5104 59.6334 16.75C60.1439 16.9844 60.5345 17.3047 60.8053 17.7109C61.0761 18.112 61.2116 18.5651 61.2116 19.0703H59.3287C59.3287 18.8464 59.2715 18.638 59.1569 18.4453C59.0475 18.2474 58.8808 18.0885 58.6569 17.9688C58.4329 17.8438 58.1517 17.7812 57.8131 17.7812C57.4902 17.7812 57.222 17.8333 57.0084 17.9375C56.8001 18.0365 56.6439 18.1667 56.5397 18.3281C56.4407 18.4896 56.3912 18.6667 56.3912 18.8594C56.3912 19 56.4173 19.1276 56.4694 19.2422C56.5267 19.3516 56.6204 19.4531 56.7506 19.5469C56.8808 19.6354 57.0579 19.7188 57.2819 19.7969C57.511 19.875 57.7975 19.9505 58.1412 20.0234C58.7871 20.1589 59.3418 20.3333 59.8053 20.5469C60.2741 20.7552 60.6334 21.026 60.8834 21.3594C61.1334 21.6875 61.2584 22.1042 61.2584 22.6094C61.2584 22.9844 61.1777 23.3281 61.0162 23.6406C60.86 23.9479 60.6308 24.2161 60.3287 24.4453C60.0267 24.6693 59.6647 24.8438 59.2428 24.9688C58.8261 25.0938 58.3574 25.1562 57.8366 25.1562C57.0709 25.1562 56.4225 25.0208 55.8912 24.75C55.36 24.474 54.9564 24.1224 54.6803 23.6953C54.4095 23.263 54.2741 22.8151 54.2741 22.3516H56.0944C56.1152 22.7005 56.2116 22.9792 56.3834 23.1875C56.5605 23.3906 56.7793 23.5391 57.0397 23.6328C57.3053 23.7214 57.5787 23.7656 57.86 23.7656C58.1985 23.7656 58.4824 23.7214 58.7116 23.6328C58.9407 23.5391 59.1152 23.4141 59.235 23.2578C59.3548 23.0964 59.4147 22.9141 59.4147 22.7109ZM67 23.6562C67.3073 23.6562 67.5833 23.5964 67.8281 23.4766C68.0781 23.3516 68.2786 23.1797 68.4297 22.9609C68.5859 22.7422 68.6719 22.4896 68.6875 22.2031H70.4609C70.4505 22.75 70.2891 23.2474 69.9766 23.6953C69.6641 24.1432 69.25 24.5 68.7344 24.7656C68.2188 25.026 67.6484 25.1562 67.0234 25.1562C66.3776 25.1562 65.8151 25.0469 65.3359 24.8281C64.8568 24.6042 64.4583 24.2969 64.1406 23.9062C63.8229 23.5156 63.5833 23.0651 63.4219 22.5547C63.2656 22.0443 63.1875 21.4974 63.1875 20.9141V20.6406C63.1875 20.0573 63.2656 19.5104 63.4219 19C63.5833 18.4844 63.8229 18.0312 64.1406 17.6406C64.4583 17.25 64.8568 16.9453 65.3359 16.7266C65.8151 16.5026 66.375 16.3906 67.0156 16.3906C67.6927 16.3906 68.2865 16.526 68.7969 16.7969C69.3073 17.0625 69.7083 17.4349 70 17.9141C70.2969 18.388 70.4505 18.9401 70.4609 19.5703H68.6875C68.6719 19.2578 68.5938 18.9766 68.4531 18.7266C68.3177 18.4714 68.125 18.2682 67.875 18.1172C67.6302 17.9661 67.3359 17.8906 66.9922 17.8906C66.612 17.8906 66.2969 17.9688 66.0469 18.125C65.7969 18.276 65.6016 18.4844 65.4609 18.75C65.3203 19.0104 65.2188 19.3047 65.1562 19.6328C65.099 19.9557 65.0703 20.2917 65.0703 20.6406V20.9141C65.0703 21.263 65.099 21.6016 65.1562 21.9297C65.2135 22.2578 65.3125 22.5521 65.4531 22.8125C65.599 23.0677 65.7969 23.2734 66.0469 23.4297C66.2969 23.5807 66.6146 23.6562 67 23.6562ZM74.4369 18.1562V25H72.5541V16.5469H74.3509L74.4369 18.1562ZM77.0228 16.4922L77.0072 18.2422C76.8926 18.2214 76.7676 18.2057 76.6322 18.1953C76.502 18.1849 76.3718 18.1797 76.2416 18.1797C75.9186 18.1797 75.6348 18.2266 75.39 18.3203C75.1452 18.4089 74.9395 18.5391 74.7728 18.7109C74.6114 18.8776 74.4864 19.0807 74.3978 19.3203C74.3093 19.5599 74.2572 19.8281 74.2416 20.125L73.8119 20.1562C73.8119 19.625 73.864 19.1328 73.9681 18.6797C74.0723 18.2266 74.2285 17.8281 74.4369 17.4844C74.6504 17.1406 74.916 16.8724 75.2337 16.6797C75.5567 16.487 75.9291 16.3906 76.3509 16.3906C76.4655 16.3906 76.5879 16.401 76.7181 16.4219C76.8535 16.4427 76.9551 16.4661 77.0228 16.4922ZM80.8581 16.5469V25H78.9675V16.5469H80.8581ZM78.8425 14.3281C78.8425 14.0417 78.9362 13.8047 79.1237 13.6172C79.3165 13.4245 79.5821 13.3281 79.9206 13.3281C80.254 13.3281 80.517 13.4245 80.7097 13.6172C80.9024 13.8047 80.9987 14.0417 80.9987 14.3281C80.9987 14.6094 80.9024 14.8438 80.7097 15.0312C80.517 15.2188 80.254 15.3125 79.9206 15.3125C79.5821 15.3125 79.3165 15.2188 79.1237 15.0312C78.9362 14.8438 78.8425 14.6094 78.8425 14.3281ZM83.5684 13H85.4512V23.1953L85.2716 25H83.5684V13ZM90.9669 20.6953V20.8594C90.9669 21.4844 90.8966 22.0599 90.7559 22.5859C90.6205 23.1068 90.4122 23.5599 90.1309 23.9453C89.8549 24.3307 89.5111 24.6302 89.0997 24.8438C88.6934 25.0521 88.2221 25.1562 87.6856 25.1562C87.1596 25.1562 86.7012 25.0573 86.3106 24.8594C85.92 24.6615 85.5919 24.3802 85.3262 24.0156C85.0658 23.651 84.8549 23.2161 84.6934 22.7109C84.532 22.2057 84.4174 21.6484 84.3497 21.0391V20.5156C84.4174 19.901 84.532 19.3438 84.6934 18.8438C84.8549 18.3385 85.0658 17.9036 85.3262 17.5391C85.5919 17.1693 85.9174 16.8854 86.3028 16.6875C86.6934 16.4896 87.1492 16.3906 87.67 16.3906C88.2117 16.3906 88.6882 16.4948 89.0997 16.7031C89.5164 16.9115 89.8627 17.2083 90.1387 17.5938C90.4148 17.974 90.6205 18.4271 90.7559 18.9531C90.8966 19.4792 90.9669 20.0599 90.9669 20.6953ZM89.0841 20.8594V20.6953C89.0841 20.3151 89.0528 19.9583 88.9903 19.625C88.9278 19.2865 88.8236 18.9896 88.6778 18.7344C88.5372 18.4792 88.3445 18.2786 88.0997 18.1328C87.8601 17.9818 87.5606 17.9062 87.2012 17.9062C86.8679 17.9062 86.5815 17.9635 86.3419 18.0781C86.1023 18.1927 85.9018 18.349 85.7403 18.5469C85.5789 18.7448 85.4512 18.974 85.3575 19.2344C85.269 19.4948 85.2091 19.776 85.1778 20.0781V21.4922C85.2247 21.8828 85.3236 22.2422 85.4747 22.5703C85.6309 22.8932 85.8497 23.1536 86.1309 23.3516C86.4122 23.5443 86.7742 23.6406 87.2169 23.6406C87.5658 23.6406 87.8601 23.5703 88.0997 23.4297C88.3393 23.2891 88.5294 23.0938 88.67 22.8438C88.8158 22.5885 88.92 22.2917 88.9825 21.9531C89.0502 21.6146 89.0841 21.25 89.0841 20.8594ZM96.9272 25.1562C96.3022 25.1562 95.7371 25.0547 95.2319 24.8516C94.7319 24.6432 94.3048 24.3542 93.9506 23.9844C93.6017 23.6146 93.3334 23.1797 93.1459 22.6797C92.9584 22.1797 92.8647 21.6406 92.8647 21.0625V20.75C92.8647 20.0885 92.961 19.4896 93.1537 18.9531C93.3465 18.4167 93.6147 17.9583 93.9584 17.5781C94.3022 17.1927 94.7084 16.8984 95.1772 16.6953C95.6459 16.4922 96.1537 16.3906 96.7006 16.3906C97.3048 16.3906 97.8334 16.4922 98.2866 16.6953C98.7397 16.8984 99.1147 17.1849 99.4116 17.5547C99.7136 17.9193 99.9376 18.3542 100.083 18.8594C100.234 19.3646 100.31 19.9219 100.31 20.5312V21.3359H93.7787V19.9844H98.4506V19.8359C98.4402 19.4974 98.3725 19.1797 98.2475 18.8828C98.1277 18.5859 97.9428 18.3464 97.6928 18.1641C97.4428 17.9818 97.1095 17.8906 96.6928 17.8906C96.3803 17.8906 96.1017 17.9583 95.8569 18.0938C95.6173 18.224 95.4168 18.4141 95.2553 18.6641C95.0939 18.9141 94.9689 19.2161 94.8803 19.5703C94.797 19.9193 94.7553 20.3125 94.7553 20.75V21.0625C94.7553 21.4323 94.8048 21.776 94.9037 22.0938C95.0079 22.4062 95.159 22.6797 95.3569 22.9141C95.5548 23.1484 95.7944 23.3333 96.0756 23.4688C96.3569 23.599 96.6772 23.6641 97.0366 23.6641C97.4897 23.6641 97.8933 23.5729 98.2475 23.3906C98.6017 23.2083 98.909 22.9505 99.1694 22.6172L100.162 23.5781C99.9793 23.8438 99.7423 24.099 99.4506 24.3438C99.159 24.5833 98.8022 24.7786 98.3803 24.9297C97.9636 25.0807 97.4793 25.1562 96.9272 25.1562Z" fill="white"/>
<path d="M141 10L117 21.25L124.67 23.6172L136.5 14.375L127.502 24.4913L127.509 24.4936L127.5 24.4913V30L131.801 25.8183L137.25 27.5L141 10Z" fill="white"/>
</svg>
